<?xml version="1.0" encoding="UTF-8"?>
<svg id="Layer_2" data-name="Layer 2" xmlns="http://www.w3.org/2000/svg" viewBox="0 0 421.88 402.68">
  <defs>
    <style>
      .cls-1 {
        opacity: .7;
      }

      .cls-2 {
        fill: #e6e4e4;
      }
    </style>
  </defs>
  <g id="Layer_1-2" data-name="Layer 1">
    <g class="cls-1">
      <g>
        <path class="cls-2" d="M113.86,402.68c-.12-3.03-.9-6.21-.25-9.06,3.34-14.58,.76-28.06-6.83-40.74-4.58-7.65-8.96-15.44-13.95-22.83-5.61-8.3-4.89-16.7,.27-24.16,5.19-7.5,12.05-13.83,18.07-20.77,2.74-3.16,6.17-3.67,10-3.37,6.32,.5,9.1,4.62,6.77,10.49-1.19,2.98-2.95,5.73-4.3,8.66-.76,1.65-1.51,3.41-1.74,5.19-.58,4.51,1.42,6.25,5.85,5.22,6.97-1.61,11.11-6.61,13.65-12.73,3.23-7.79,5.77-15.87,8.63-23.81,8.67-24.04,26.32-37.7,50.89-42.49,7.6-1.48,13.34,3.97,17.95,9.48,6.51,7.75,7.55,17.36,7.69,26.96,.12,8.6-.42,17.2-.74,25.81-.62,16.45,4.76,31.77,8.81,47.34,2.24,8.62,4.83,17.19,3.25,26.28-1.28,7.4-4.85,13.14-11.63,16.77-10.53,5.63-22.18,7.15-33.66,9.3-1.51,.28-3.11,.34-4.53,.86-13.28,4.87-26.46,.48-39.69-.19-7.03-.36-14.12,.25-21.18,.46-5.1,.15-7.77,3.82-10.54,7.33h-2.78Z"/>
        <path class="cls-2" d="M0,234.6c3.31-3.55,6.35-7.42,10.01-10.56,3.94-3.38,6.57-7.26,8.97-11.92,6.59-12.8,14.05-25.17,21.29-37.63,5.93-10.22,11.65-20.6,18.18-30.44,6.9-10.39,17.18-16.04,29.58-17.44,4.19-.47,8.13-.12,12.37,1.98,19.07,9.43,31.37,25.84,44.75,41.3,8.14,9.4,16.37,18.94,25.83,26.91,7.25,6.11,16.51,9.83,24.8,14.75,1.35,.8,3.16,2.29,3.17,3.48,0,1.2-1.72,3-3.08,3.53-11.02,4.34-22.27,8.1-33.17,12.68-17.94,7.54-33.66,18.41-47.13,32.57-8.23,8.66-18.72,12.96-30.61,12.94-4.14,0-8.89-.88-12.28-3.05-7.46-4.79-14.35-10.51-21.24-16.13-3.44-2.81-6.26-6.37-9.57-9.35-7.5-6.74-15.6-10.96-26.45-8.44-4.83,1.13-10.26-.3-15.42-.57v-4.62Z"/>
        <path class="cls-2" d="M220.95,167.52c1.57-19.06,3.13-37.28,4.51-55.52,.19-2.5,2.03-6.14-1.63-7.28-3.99-1.24-4.94,2.87-5.58,5.32-2.14,8.28-3.96,16.67-5.38,25.1-1.58,9.38-2.1,18.94-3.98,28.25-1.59,7.91-6.25,14.16-13.21,18.74-6.32,4.15-12.72,4.23-18.64,.24-9.6-6.46-17.8-14.13-22.89-25.13-3.83-8.27-9.63-15.65-14.79-23.27-4.91-7.25-10.57-14.04-15.06-21.53-2.7-4.51-4.56-9.84-5.47-15.03-1.75-10.03,.44-18.86,8.72-26.16,10.92-9.65,23.68-15.92,36.51-22.3,8.67-4.31,17.32-8.76,25.54-13.87,10.41-6.47,18.23-15.47,23.52-26.64,4.51-9.51,12.19-11.16,20.08-4.08,3.14,2.82,5.39,6.64,7.99,10.04,2.75,3.59,4.97,7.77,8.26,10.75,12.08,10.96,24.6,21.45,36.8,32.29,6.99,6.21,11.66,13.71,12.4,23.41,.67,8.76-1.33,15.84-9.04,21.2-12.45,8.66-23.65,18.74-32.32,31.37-5.75,8.37-9.32,17.53-11.22,27.53-1.71,9.05-6.16,16.71-14.07,21.92-4.91,3.23-8.15,2.29-9.74-3.41-1.13-4.05-.96-8.46-1.3-11.94Z"/>
        <path class="cls-2" d="M290.52,258.19c-3.14-4.74-5.98-8.71-8.47-12.88-2.9-4.85-5.94-9.7-8.08-14.9-2.09-5.08-1.51-10.7,2.25-14.78,3.8-4.12,9.38-4.06,14.26-2.11,5.52,2.21,11.01,4.84,15.9,8.19,8.76,6.01,16.88,12.93,25.59,19.02,11.09,7.76,22.52,15.01,33.73,22.6,4.32,2.93,8.69,5.88,12.58,9.33,11.72,10.4,12.67,23.61,7.74,37.19-2.84,7.83-7.78,14.92-11.96,22.23-1.67,2.93-3.68,5.7-5.78,8.34-6.31,7.92-9.18,16.6-8.45,26.94,.7,9.88-2.28,11.37-10.92,6.58-4.31-2.38-8.36-5.22-12.63-7.67-5.82-3.34-11.25-2.56-17.53,.05-7.69,3.19-16.09,5.28-24.38,6.29-9.9,1.21-20,.9-30.01,.95-1.77,0-3.84-1.05-5.26-2.23-5.17-4.27-7.92-10.28-7.94-16.62-.08-35.1-11.65-67.6-21.85-100.46-1.45-4.69-1.65-10.01-1.28-14.95,.5-6.66,5.04-9.77,11.26-7.43,5.64,2.12,10.99,5.37,15.91,8.89,5.24,3.74,9.67,8.59,14.75,12.57,5.64,4.42,12.09,6.58,20.56,4.82Z"/>
        <path class="cls-2" d="M378.55,252.14c-2.51-1.43-5.31-2.51-7.48-4.33-15.57-13.06-31.44-25.81-46.33-39.61-8.64-8.01-18.08-11.17-29.46-11.4-15.28-.31-30.12,1.18-44.34,7.12-5.42,2.27-10.64,.67-15.47-1.84-.83-.43-1.11-3.22-.67-4.6,3.91-12.15,10.15-23.18,18.41-32.79,10.63-12.36,21.96-24.13,33.05-36.09,4.4-4.74,9.36-9,13.38-14.03,8.42-10.54,20.17-14.25,32.58-16.47,21.31-3.81,36.09,6.1,48.6,22.39,7.89,10.28,17.52,19.28,26.83,28.38,2.57,2.51,6.82,3.27,10.22,4.99,1.5,.76,3.91,1.84,3.98,2.89,.15,2.38-.1,6.13-1.6,7.07-16.7,10.47-19.92,27.12-21.46,44.7-.82,9.34-1.62,18.68-2.78,27.98-1.2,9.58-7.28,14.66-17.45,15.64Z"/>
      </g>
    </g>
  </g>
</svg>